<svg xmlns="http://www.w3.org/2000/svg" xml:space="preserve" viewBox="0 0 79.04 335.57"><g fill="#1072BA"><path d="m68.27 241.14-59.42.45.44-6.05 55.39-.45 2.7.45zM13.56 233.74l50.67-.67-1.71-24.52s-.75-.65-3.67 1.81c-2.91 2.47-.33-1.8-.33-1.8s-1.16-5.17-1.31-5.54c-.15-.38-1.05.3-1.05.67 0 .37.08-1.94-.15-2.17-.22-.22-.97-1.87-1.94.6s-2.84 24.44-2.84 24.44.08 4.56-.3 4.86c-.37.3-4.48-3.51-4.48-4.19 0-.67 4.93-23.17 4.63-23.99-.3-.82-5.9 4.56-7.47 4.33-1.57-.22.37 17.5.07 17.64-.3.15-3.14 2.77-3.89 3.15-.74.37 1.5-16.45 1.5-17.72s-4.86 6.2-5.23 8.52c-.38 2.32-.98.62-1.65-.3-.35-.47 1.27-6.58 1.12-6.8-.15-.23-2.69.9-2.99 1.35-.3.44-2.69 12.85-4.56 14.27s-.3-7.77-.9-8.07c-.6-.3-3.36 2.4-3.36 2.4s.53 9.18-.07 9.86c-.6.67-1.57.45-1.94.15s1.94-5.24 1.79-5.83c-.15-.6-.23-1.35-.6-.9-.37.45.3-1.8-.07-2.02s-1.2.23-1.2.23-2.77 6.87-3.36 7.47c-.6.6-4.27 1.04-4.71 2.76zM8.62 43.51c.15-.6.6-1.57.98-1.65.37-.07-.3-2.46-.3-2.46s6.2-.9 6.72.9c.53 1.79-.07 1.79-.07 1.94 0 .14 3.06 3.66 2.02 11.96-1.05 8.3 3.06 21.52 2.32 26.6-.75 5.09-1.2 5.83-1.95 8.67-.74 2.85-2.02-11.35-2.91-12.25-.9-.9-1.35-4.19-.45-4.41s1.64-2.25 2.1-2.62c.44-.37-1.65-10.61-1.8-11.06 0 0-1.12 2.77-2.24 1.12-1.13-1.65.6-4.34.44-4.93-.14-.6-.22-4.41.08-4.79.3-.37.37-2.4.15-2.46-.23-.08-1.65.37-2.4.44-.74.08-1.56-2.01-.97-2.01s-.67-1.8-.74-2.25c-.08-.44-.98-.74-.98-.74zM12.28 83.95c.46.04.68 8.22.68 8.22s.74 3.59 1.2 4.26c.44.67-.6 2.1-2.03 2.24-1.42.15-2.09-.07-2.09-.07-.15-.07-.45 3.96-.52 4.19-.08.22-2.92-1.95-2.84-4.79.07-2.84 3.29-14.28 5.6-14.05zM57.4 133.45c-.24-.23 6.5-9.7 6.5-9.7l1.34.34.23-2.13 13.12 5.5-1.46 1.17.9 1.06-2.02 2.7s2.91 2.85 2.63 4.48c-.28 1.62-8.57 10.14-9.36 10.31-.78.17-5.05 8.13-5.05 8.13l-3.2-.45s-1.67-10.2-3.02-11.38c-1.34-1.18-1.12-2.13-.84-3.3s.4-6.55.23-6.72zM45.1 110.48c-.3.3-12.86 29.75-13.3 31.1-.45 1.34-3.15 12.85-7.48 19.88s-5.09 10.76-5.23 13.3c-.15 2.55.9 6.13.74 7.63-.14 1.5-4.33 6.58-4.48 9.42-.15 2.84.45 2.99.45 2.99s5.38-3.14 7.47-4.64c2.1-1.5 11.52-16.9 12.26-23.77.75-6.87 4.04-16.44 4.49-17.49.44-1.04 4.93-18.99 4.78-20.78-.15-1.8.6-15.84.6-15.84l-.3-1.8z"/><path d="M15.64 196.78s21.03-14.12 23.85-22.8l1.64-2.25c.3-.6-4.88 18.1-7.41 20.95-2.53 2.85-3.72 4.95-4.16 6.74-.45 1.8-3.56 10.03-4.75 13.02-1.18 3-2.22 6.3-2.51 8.09s-8.2 6.45-9.25 5.11-.61-2.99-.61-2.99-2.24-.89-.16-3.44-.1-2.83-.07-3.46c.04-.95-.14-13.87 3.43-18.96zM46.85 165.57s-.44 36.22-1.34 38.35c-.9 2.13-9.53 3.25-13.12 6.95s-4.82 6.05-6.84 7.62c-2.02 1.57-2.91 3.59-2.69 3.03.23-.56 7.74-19.96 13-26.8 5.28-6.84 4.04-13.46 5.16-15.92 1.13-2.47 4.26-12 5.83-13.24zM49.32 145.28c0 .34-.56 49.33-.56 50.23s13.9-7.4 15.02-8.97-5.71-32.18-6.39-36.78-2.35-13.56-3.02-14.35c-.68-.78-1.01 6.4-2.25 6.73-1.23.34-2.8 3.14-2.8 3.14zM46.52 110.18s8.19 7.85 9.75 17.5c1.57 9.63.1 3.34-.1 3.7-.36.6-1.58-3.7-3.37-2.25-1.8 1.46-2.58 1.68-2.58 2.13S50 121.5 50 121.5l-3.48-11.32zM10.53 104.47s8.18-3.7 9.08-4.7c.9-1.02-7.62 9.97-8.86 9.86-1.23-.12-2.35-.45-2.02-.9.34-.45.45-2.47.79-2.58.34-.1 1-1.68 1-1.68zM40.69 107.94c-.11.34-9.53 10.54-13.34 13s-8.53 8.86-9.76 11.33c-1.23 2.47-4.93 8.3-5.5 9.98s-.89 3.59-.67 5.04a5.49 5.49 0 0 0 1.24 2.92c.48.45 2.31.74 2.87.52.57-.23 1.5-.75 1.5-.75s3.7-19.5 4.7-19.73c1.02-.23.9 3.25-.33 5.83s-1 3.03-1.12 3.48c-.11.45.22.9.22.9s14.7-22.32 15.48-24.22c.79-1.91 4.7-8.3 4.7-8.3zM33.96 129.13c-.33.34-19.96 30.27-20.18 33.52-.22 3.26.67 3.48 1.23 3.93.56.45 2.47 0 2.8-.23s1.69-4.03 1.69-4.03l14.46-33.2zM19.27 118.48c-.45 1.01-6.61 5.16-6.28 6.05.34.9.57 1.8 1.01 1.8s.68.11.79.56c.11.45 0 .56.22 1.23.23.68.9 2.24.9 2.24l3.36-11.89z"/><path d="M43.68 90.49c.26-.04 1.94.04 1.57-.75-.33-.68-.93-2.98-.77-4.17l11.53-.43S47.78 83.52 44.97 83c0-.48-.04-.96-.1-1.4l10.32-4.15s-8.86 1.46-11.14 1.8c-.42-.8-.86-1.46-.86-1.46l-.33-.29 7.54-7.9s-7.7 5.36-9.5 6.57c-1-.52-1.99-.82-2.95-.96l.27-10.46c0 .19-2.2 8.02-2.87 10.44-1.36.16-2.6.57-3.6 1.02l-7.28-7.5 5.09 8.71-.31.23c-.63.44-1.17.9-1.63 1.37l-8.76-.14.15 1.2 6.78 1.46a7.66 7.66 0 0 0-.54 1.54l-2.88.36.02.08c-.68-1.12-1.29-1.8-1.29-1.8s.52 2.91.07 5.9c-.44 3-8.14 12.11-8.14 12.11s-.38.82 2.31.52c2.7-.3 7.4-3.36 8.75-8.52.65-2.48-.03-4.9-.9-6.74l1.85.3a8.78 8.78 0 0 0 1.07 3.75c0-.15 2.46-2.91 3.17-2.73.71.2 4.34-1.64 4.53-1.45.18.18 1.71 1.42 1.71 1.42s1.5.7 1.5.86.07 3.73-.11 3.77l-.75.19s-.26 1.86-.52 1.8c-.26-.09-.34.44-.49.59-.14.15 1.31 1.23 1.31 1.23s.49 1.5 0 1.53c-.48.04-.78 2.02-.45 2.4.34.37.98.37 1.16.33.19-.03.71.41 2.24-.26 1.54-.67 3.9-7.47 3.9-7.47s.1-.7.37-.75zm1.72 13.45c.03-.11-1.31-5.16-1.12-5.27s.67-.45 1-1.23c.34-.79-.7-2.5-.7-2.58s-.83-3.1-.83-3.1c0 .18-3.21 7.25-3.21 7.25s.15 3.43.23 3.77c.07.34 1.34.11 1.34.26 0 .15.15 2.7.22 2.7.08 0 .42.4.86.03.45-.37 2.55-.23 2.55-.23s-.38-1.48-.34-1.6zM13 116.8c-1.46.78-1.24.9-1.01 1.23s.44 1.01.44 1.01-.56-.56-.9 1.12c-.33 1.69-.44 2.13-.1 2.25.33.1 7.28-4.04 8.4-6.85 1.12-2.8 5.16-13.9 5.16-13.9-.11.45-10.54 14.36-12 15.14zm7.95-13.34 3.82-9.3c-.11.44-5.83 7.17-6.5 10.53-.68 3.36-1.35 4.04-1.8 4.82-.45.8 4.48-6.05 4.48-6.05zm14.58 1.34c-.45-.11-1.35-.9-2.35-1.8-1.01-.89-3.82-4.82-3.82-4.82-.78-2.01-3.58-3.92-2.9-3.02.66.9-.57 11.88-.8 12.56s-4.81 13.9-4.48 13.45c.34-.45 1.35-1.34 2.8-2.24 1.46-.9.79-2.36 1.01-4.48.23-2.14.68-1.8 1.46-3.6.79-1.79 2.58-1.9 3.93-2.35 1.34-.44 4.26-1.12 4.7-1.23.45-.13.9-2.37.45-2.49zM7.72 38.31s5.33-2.52 9.28-.08c0 0 2.52.59 4.35-2.24 0 0-.28-1.54-4.43-2.24s-7.46-.03-7.46-.03-3.59.7-4.74 2.04c-1.14 1.35 3 2.55 3 2.55z"/><path d="M5.76 34.08s6.06-3.92 14.41-.28c0 0 .11-2.33.65-2.52s-7.6-3.34-15.28-.23c0 0 1.1 1.38.22 3.03zM10.4 26.86l.76.4c1.26.94 5.07-.4 5.07-.4s5.18-2.85 4.4-9.58.07 2.04-2.19 3.91c-.21-.97-.5-1.76-1.06-2.89l-.7-1.38.17-.18c1-1 5.95-5.26 1.12-16.74 0 0 .7 8.12-1.04 9.5-1.74 1.4-9.4 4.65-9.17 11.14s1.24 5.28 2.65 6.23M3.36 245.76h68.28v11.44H3.36zM0 260.22h79.04v12.11H0zM5.04 277.04v58.52h67.28v-58.52H5.05zM31.2 297.9h-8.93v-16.48h8.93v16.48zm12.97 0h-8.93v-16.48h8.93v16.48zm14.02 0h-8.92v-16.48h8.92v16.48z"/></g></svg>